# xmcd
#
# Track frame offsets:
#	150
#	16345
#	35033
#	52117
#	68584
#	88562
#	113917
#	141603
#	156606
#	171068
#	186063
#	211958
#	228135
#
# Disc length: 3378 seconds
# Revision: 0
# Processed by: cddbd v1.5.2PL0 Copyright (c) Steve Scherf et al.
# Submitted via: dBpowerAMP V12.0
#
DISCID=b60d300d
DTITLE=Threat Signal - Under Reprisal
DYEAR=2006
DGENRE=Metal
TTITLE0=Rational Eyes
TTITLE1=As I Destruct
TTITLE2=One Last Breath
TTITLE3=Seeing Red
TTITLE4=A New Beginning
TTITLE5=Counterbalance
TTITLE6=Inane
TTITLE7=Now
TTITLE8=Faceless
TTITLE9=Haunting
TTITLE10=When All Is Said and Done
TTITLE11=Rational Eyes (Demo)
TTITLE12=Counterbalance (Demo)
EXTD=
EXTT0=
EXTT1=
EXTT2=
EXTT3=
EXTT4=
EXTT5=
EXTT6=
EXTT7=
EXTT8=
EXTT9=
EXTT10=
EXTT11=
EXTT12=
PLAYORDER=
